<?xml version="1.0" standalone="no"?>
<!DOCTYPE svg PUBLIC "-//W3C//DTD SVG 20010904//EN"
 "http://www.w3.org/TR/2001/REC-SVG-20010904/DTD/svg10.dtd">
<svg version="1.0" xmlns="http://www.w3.org/2000/svg"
 width="160.000000pt" height="160.000000pt" viewBox="0 0 160.000000 160.000000"
 preserveAspectRatio="xMidYMid meet">
<metadata>
Created by potrace 1.11, written by Peter Selinger 2001-2013
</metadata>
<g transform="translate(0.000000,160.000000) scale(0.100000,-0.100000)"
fill="#000000" stroke="none">
<path d="M756 1591 c-3 -4 -1 -35 4 -67 30 -184 -11 -302 -102 -292 -30 3 -31
2 -80 -120 -41 -104 -50 -140 -60 -233 -13 -128 -26 -153 -79 -151 -23 1 -41
9 -56 27 -26 30 -47 98 -39 129 3 12 1 27 -3 35 -20 32 -110 -136 -137 -257
-14 -64 -15 -83 -4 -131 16 -74 51 -141 116 -225 30 -38 54 -73 54 -78 0 -14
-29 -9 -70 12 -22 11 -40 16 -40 11 0 -5 28 -35 62 -65 95 -85 278 -172 344
-164 25 3 20 9 -64 81 l-92 77 0 48 c1 94 34 238 66 284 16 23 35 48 42 54 8
5 22 34 33 64 10 30 22 56 26 59 14 10 63 79 63 88 0 11 32 39 67 56 42 22 77
24 106 4 25 -16 27 -23 27 -87 0 -39 4 -70 8 -70 5 0 16 -17 25 -38 9 -21 50
-75 91 -120 45 -50 74 -91 74 -104 0 -13 4 -59 7 -104 5 -50 4 -88 -3 -100 -5
-10 -51 -53 -101 -94 -49 -41 -90 -78 -91 -82 0 -9 109 25 176 56 67 31 174
97 174 108 0 4 -13 5 -30 1 -47 -9 -38 17 34 99 36 40 77 97 93 128 25 49 28
65 28 155 0 104 -21 195 -67 298 -25 56 -38 60 -38 12 0 -46 -40 -89 -73 -80
-49 15 -52 25 -52 193 0 196 -8 217 -139 348 -98 97 -291 249 -300 235z"/>
<path d="M370 1217 c0 -8 -20 -39 -45 -71 -24 -31 -46 -65 -49 -74 -13 -49
-15 -70 -8 -95 l7 -27 43 50 c23 27 49 68 57 91 17 47 20 139 5 139 -5 0 -10
-6 -10 -13z"/>
</g>
</svg>
